<svg width="28" height="20" viewBox="0 0 28 20" fill="none" xmlns="http://www.w3.org/2000/svg">
<path d="M27.41 3.26001C27.2507 2.66805 26.9386 2.12832 26.5052 1.69485C26.0717 1.26137 25.5319 0.949349 24.94 0.790012C22.76 0.200012 14 0.200012 14 0.200012C14 0.200012 5.23999 0.200012 3.05999 0.790012C2.46803 0.949349 1.9283 1.26137 1.49482 1.69485C1.06135 2.12832 0.749326 2.66805 0.589989 3.26001C0.182935 5.48328 -0.0145974 7.73984 -1.05039e-05 10C-0.0145974 12.2602 0.182935 14.5167 0.589989 16.74C0.749326 17.332 1.06135 17.8717 1.49482 18.3052C1.9283 18.7387 2.46803 19.0507 3.05999 19.21C5.23999 19.8 14 19.8 14 19.8C14 19.8 22.76 19.8 24.94 19.21C25.5319 19.0507 26.0717 18.7387 26.5052 18.3052C26.9386 17.8717 27.2507 17.332 27.41 16.74C27.817 14.5167 28.0146 12.2602 28 10C28.0146 7.73984 27.817 5.48328 27.41 3.26001ZM11.2 14.2V5.80001L18.47 10L11.2 14.2Z" fill="white"/>
</svg>
